<?xml version="1.0" standalone="no"?>
<!DOCTYPE svg PUBLIC "-//W3C//DTD SVG 20010904//EN"
 "http://www.w3.org/TR/2001/REC-SVG-20010904/DTD/svg10.dtd">
<svg version="1.0" xmlns="http://www.w3.org/2000/svg"
 width="1033.000000pt" height="998.000000pt" viewBox="0 0 1033.000000 998.000000"
 preserveAspectRatio="xMidYMid meet">

<g transform="translate(0.000000,998.000000) scale(0.100000,-0.100000)"
fill="#000000" stroke="none">
<path d="M1720 9963 c-147 -8 -377 -56 -520 -107 -477 -172 -878 -564 -1057
-1035 -81 -210 -120 -415 -134 -701 -15 -315 -6 -6341 9 -6445 77 -500 225
-818 520 -1119 315 -320 694 -491 1187 -536 70 -6 1304 -10 3436 -10 2901 0
3346 2 3485 15 441 42 820 216 1123 513 251 247 413 543 492 896 57 257 53 8
55 3441 1 1733 -2 3220 -6 3305 -26 501 -202 915 -531 1250 -113 115 -159 154
-264 224 -216 143 -429 230 -695 284 l-135 27 -3455 1 c-1900 0 -3480 -1
-3510 -3z m3885 -728 c338 -36 643 -104 955 -210 573 -195 1120 -532 1559
-960 293 -286 493 -537 696 -875 429 -712 648 -1573 606 -2382 -43 -814 -277
-1528 -714 -2183 -416 -623 -981 -1121 -1653 -1458 -93 -47 -205 -99 -249
-117 -44 -18 -111 -45 -150 -60 -183 -74 -567 -176 -806 -214 -216 -35 -323
-45 -569 -53 -866 -25 -1762 233 -2478 715 -244 164 -416 305 -637 527 -116
115 -255 266 -311 335 -542 673 -858 1447 -940 2305 -20 209 -14 689 10 885
97 769 387 1489 839 2084 309 406 748 802 1181 1064 592 359 1238 564 1927
612 169 12 564 4 734 -15z"/>
<path d="M4895 8993 c-516 -42 -936 -146 -1382 -344 -249 -109 -534 -275 -728
-423 -552 -422 -925 -867 -1220 -1455 -200 -400 -334 -860 -392 -1341 -24
-203 -24 -667 1 -875 52 -446 150 -808 334 -1232 48 -111 223 -425 305 -548
586 -877 1462 -1477 2487 -1703 302 -67 539 -92 874 -92 260 0 415 12 646 51
570 95 1092 303 1584 632 745 498 1314 1261 1581 2122 136 437 179 727 179
1195 0 483 -53 831 -196 1270 -249 769 -724 1432 -1398 1951 -488 376 -1129
647 -1780 753 -222 36 -685 57 -895 39z m-533 -2411 c113 -57 198 -129 290
-247 160 -205 330 -556 578 -1190 319 -816 460 -1116 636 -1352 174 -232 355
-249 552 -51 102 102 191 236 377 568 254 453 472 671 760 760 122 38 182 42
688 47 561 6 571 5 613 -56 28 -42 30 -79 8 -128 -34 -70 -8 -67 -609 -74
-604 -6 -589 -5 -744 -80 -154 -76 -286 -230 -486 -569 -235 -400 -283 -473
-366 -573 -122 -145 -240 -230 -378 -271 -196 -58 -420 38 -596 256 -191 238
-330 527 -675 1408 -337 859 -529 1202 -732 1310 -208 111 -405 -43 -668 -525
-90 -164 -202 -346 -289 -470 -128 -183 -328 -351 -495 -416 -152 -59 -208
-63 -776 -64 -467 0 -518 2 -546 17 -35 19 -64 71 -64 116 0 41 39 95 80 109
25 8 174 11 530 10 426 0 506 2 575 16 164 34 319 137 448 297 64 80 228 343
327 525 201 368 387 569 605 652 52 20 74 23 167 20 103 -3 111 -5 190 -45z"/>
</g>
</svg>
